<svg xmlns="http://www.w3.org/2000/svg" xmlns:xlink="http://www.w3.org/1999/xlink" viewBox="0 0 280 250" preserveAspectRatio="xMidYMid" style="display: block; shape-rendering: auto; background: transparent;" width="280" height="250"><style type="text/css">
  .ld-text text {
    text-anchor: middle;
    dominant-baseline: middle;
    font-size: 62px;
    opacity: 0;
    user-select: none;
    pointer-events: none;
  }
</style>
<g style="transform-origin:140px 125px;transform:scale(1)" class="ld-text">
<g transform="translate(140,125)">
  <g transform="scale(0.7750) translate(0,0)"><g class="path" style="opacity: 1; transform-origin: -96.2px 11.11px; transform: matrix3d(1, 0, 0, 0, 0, 1, 0, 0, 0, 0, 1, 0, 0, 0, 0, 1); animation: 1s linear -0.640588s infinite normal forwards running animate-ffrig66in1; transform-box: view-box;"><path d="M18.56-18.08L18.56-18.08Q18.24-18.80 18.40-18.80L18.40-18.80Q18.64-18.80 18.96-18.44Q19.28-18.08 19.36-18L19.36-18Q20.16-16.80 21.12-15.40Q22.08-14 22.96-12.08Q23.84-10.16 24.56-7.64Q25.28-5.12 25.68-1.68L25.68-1.68Q26.16 2.24 25.88 6.04Q25.60 9.84 24.96 13.68L24.96 13.68Q24.88 13.84 24.80 14.48Q24.72 15.12 24.48 15.12L24.48 15.12Q24.32 15.12 24.16 14.52Q24 13.92 24 13.68L24 13.68Q23.84 12.80 23.68 11.60Q23.52 10.40 23.40 9.08Q23.28 7.76 23.24 6.52Q23.20 5.28 23.20 4.32L23.20 4.32Q23.20 4 23.16 2.92Q23.12 1.84 23.04 0.40Q22.96-1.04 22.76-2.76Q22.56-4.48 22.32-6.16L22.32-6.16Q22.48-3.68 22.32-1.20Q22.16 1.28 21.92 3.80Q21.68 6.32 21.52 8.84Q21.36 11.36 21.52 13.92L21.52 13.92Q21.76 18.88 23.52 24Q25.28 29.12 29.12 32.72L29.12 32.72Q29.60 33.20 29.52 33.20L29.52 33.20Q29.36 33.28 28.96 33.04L28.96 33.04Q26.16 31.44 24.32 29.20Q22.48 26.96 21.32 24.32Q20.16 21.68 19.60 18.84Q19.04 16 18.96 13.12L18.96 13.12Q18.96 12.88 18.92 12.68Q18.88 12.48 18.88 12.24L18.88 12.24Q17.28 16.80 15.32 21.04Q13.36 25.28 11.48 29.20Q9.60 33.12 7.96 36.60Q6.32 40.08 5.36 43.04L5.36 43.04Q5.20 43.44 5.12 43.44L5.12 43.44Q4.96 43.44 4.96 43.20Q4.96 42.96 4.96 42.88L4.96 42.88Q5.04 39.12 6.48 35Q7.92 30.88 9.88 26.44Q11.84 22 14 17.32Q16.16 12.64 17.76 7.76L17.76 7.76Q18.72 4.64 19.40 1.28Q20.08-2.08 20.24-5.44Q20.40-8.80 20-12.04Q19.60-15.28 18.56-18.08" style="fill: rgb(253, 197, 52);" transform="translate(-113.444,-19.878)"></path></g><g class="path" style="opacity: 1; transform-origin: -75.15px 7.98px; transform: matrix3d(1, 0, 0, 0, 0, 1, 0, 0, 0, 0, 1, 0, 0, 0, 0, 1); animation: 1s linear -0.621176s infinite normal forwards running animate-ffrig66in1; transform-box: view-box;"><path d="M28.48 28L28.48 28Q29.36 29.84 30.80 31.44L30.80 31.44Q31.36 28.08 32.96 24.76Q34.56 21.44 36.60 18.08Q38.64 14.72 40.88 11.36Q43.12 8 45.04 4.56L45.04 4.56Q46.48 2.08 47.48-0.80Q48.48-3.68 48.92-6.68Q49.36-9.68 49.16-12.64Q48.96-15.60 47.92-18.24L47.92-18.24Q47.68-18.64 47.84-18.80L47.84-18.80Q48-18.96 48.36-18.60Q48.72-18.24 48.80-18.08L48.80-18.08Q49.76-16.72 50.36-14.52Q50.96-12.32 51.24-9.64Q51.52-6.96 51.52-4Q51.52-1.04 51.28 1.92L51.28 1.92Q50.96 5.84 50.12 10.48Q49.28 15.12 48.08 18.96L48.08 18.96Q48 19.12 47.80 19.68Q47.60 20.24 47.36 20.24L47.36 20.24Q47.20 20.16 47.12 19.56Q47.04 18.96 47.04 18.80L47.04 18.80Q47.04 17.92 47.08 16.68Q47.12 15.44 47.20 14.12Q47.28 12.80 47.40 11.56Q47.52 10.32 47.68 9.44L47.68 9.44Q47.76 8.96 47.96 7.24Q48.16 5.52 48.32 3.36L48.32 3.36Q47.36 5.60 46.80 7.36Q46.24 9.12 45.84 10.80Q45.44 12.48 45.16 14.32Q44.88 16.16 44.64 18.64L44.64 18.64Q44.40 21.12 44.44 23.84Q44.48 26.56 45 29.20Q45.52 31.84 46.52 34.36Q47.52 36.88 49.12 38.96L49.12 38.96Q49.44 39.44 49.28 39.52L49.28 39.52Q49.12 39.60 48.88 39.36L48.88 39.36Q46.32 37.28 44.84 34.68Q43.36 32.08 42.64 29.20Q41.92 26.32 41.88 23.32Q41.84 20.32 42.16 17.44L42.16 17.44Q42.32 16.40 42.44 15.36Q42.56 14.32 42.72 13.20L42.72 13.20Q40.88 16.16 39.04 18.96Q37.20 21.76 35.60 24.52Q34 27.28 32.76 29.96Q31.52 32.64 30.88 35.28L30.88 35.28Q30.72 35.68 30.72 35.68L30.72 35.68Q30.56 35.68 30.56 35.36Q30.56 35.04 30.56 34.96L30.56 34.96Q30.56 34.32 30.56 33.68Q30.56 33.04 30.72 32.40L30.72 32.40Q30.08 32.08 29.60 31.80Q29.12 31.52 28.68 31.12Q28.24 30.72 27.80 30.16Q27.36 29.60 26.88 28.72L26.88 28.72Q26.48 27.92 26.08 26.80Q25.68 25.68 25.40 24.60Q25.12 23.52 25.08 22.76Q25.04 22 25.28 22L25.28 22Q25.44 22 25.64 22.28Q25.84 22.56 26.08 22.96Q26.32 23.36 26.48 23.76Q26.64 24.16 26.72 24.32L26.72 24.32Q27.12 25.28 27.56 26.20Q28 27.12 28.48 28" style="fill: rgb(100, 201, 222);" transform="translate(-113.444,-19.878)"></path></g><g class="path" style="opacity: 1; transform-origin: -77.81px 0.91px; transform: matrix3d(1, 0, 0, 0, 0, 1, 0, 0, 0, 0, 1, 0, 0, 0, 0, 1); animation: 1s linear -0.601765s infinite normal forwards running animate-ffrig66in1; transform-box: view-box;"><path d="M30.16 12.40L30.16 13.20Q31.92 9.76 33.80 6.52Q35.68 3.28 36.80 1.36L36.80 1.36Q38.72-2.08 40.80-5.40Q42.88-8.72 44.40-11.28L44.40-11.28Q44.56-11.68 44.76-12Q44.96-12.32 45.12-12.16L45.12-12.16Q45.28-12.16 45.20-11.76Q45.12-11.36 45.04-10.96L45.04-10.96Q43.92-5.20 41-0.08Q38.08 5.04 34.88 10.24L34.88 10.24Q33.76 12 32.92 13.16Q32.08 14.32 31.48 15.40Q30.88 16.48 30.48 17.76Q30.08 19.04 29.92 21.04L29.92 21.04Q30.24 20.16 30.64 19.36Q31.04 18.56 31.44 17.84L31.44 17.84Q33.68 14 36.48 10.16Q39.28 6.32 42 2.96L42 2.96Q42.16 2.80 42.60 2.28Q43.04 1.76 43.20 1.84L43.20 1.84Q43.36 1.92 43.16 2.56Q42.96 3.20 42.88 3.52L42.88 3.52Q42.48 4.40 41.88 5.68Q41.28 6.96 40.60 8.28Q39.92 9.60 39.20 10.84Q38.48 12.08 37.92 12.88L37.92 12.88Q37.60 13.36 36.56 14.80Q35.52 16.24 34.32 18.40Q33.12 20.56 31.96 23.28Q30.80 26 30.24 29.04L30.24 29.04Q30 28.56 29.64 27.84Q29.28 27.12 28.80 25.52L28.80 25.52Q27.36 20.48 27.24 15.32Q27.12 10.16 27.20 4.72L27.20 4.72Q27.28 1.28 27.24-2.16Q27.20-5.60 26.08-9.44L26.08-9.44Q26-9.76 26.08-9.92L26.08-9.92Q26.24-9.92 26.56-9.44L26.56-9.44Q28-7.92 28.72-5Q29.44-2.08 29.76 1.16Q30.08 4.40 30.12 7.48Q30.16 10.56 30.16 12.40L30.16 12.40" style="fill: rgb(253, 102, 57);" transform="translate(-113.444,-19.878)"></path></g><g class="path" style="opacity: 1; transform-origin: -104.76px 4.95px; transform: matrix3d(1, 0, 0, 0, 0, 1, 0, 0, 0, 0, 1, 0, 0, 0, 0, 1); animation: 1s linear -0.582353s infinite normal forwards running animate-ffrig66in1; transform-box: view-box;"><path d="M9.12 6.24L9.12 6.24Q10.48 2.08 12.20-2.16Q13.92-6.40 15.20-9.76L15.20-9.76Q15.36-10.16 15.56-10.56Q15.76-10.96 15.92-10.88L15.92-10.88Q16.08-10.88 16.04-10.36Q16-9.84 16-9.44L16-9.44Q15.28-2.88 13.12 3.60Q10.96 10.08 8.32 16.40L8.32 16.40Q6.72 20.40 4.88 24.44Q3.04 28.48 1.84 33.20L1.84 33.20Q1.68 33.60 1.72 33.68Q1.76 33.76 1.68 33.76L1.68 33.76Q1.44 33.60 1.44 33.04L1.44 33.04Q1.04 30.64 1.92 27Q2.80 23.36 4.16 19.48Q5.52 15.60 6.96 12.04Q8.40 8.48 9.12 6.24" style="fill: rgb(25, 91, 121);" transform="translate(-113.444,-19.878)"></path></g><g class="path" style="opacity: 1; transform-origin: -104.13px 13.8px; transform: matrix3d(1, 0, 0, 0, 0, 1, 0, 0, 0, 0, 1, 0, 0, 0, 0, 1); animation: 1s linear -0.562941s infinite normal forwards running animate-ffrig66in1; transform-box: view-box;"><path d="M5.68 25.28L5.68 25.28Q7.68 20.72 10 15.88Q12.32 11.04 14.48 6.64L14.48 6.64Q14.56 6.40 14.92 5.76Q15.28 5.12 15.60 5.20L15.60 5.20Q15.76 5.20 15.68 5.92Q15.60 6.64 15.44 6.96L15.44 6.96Q15.20 8.08 14.80 9.64Q14.40 11.20 13.88 12.84Q13.36 14.48 12.80 16.04Q12.24 17.60 11.76 18.64L11.76 18.64Q11.52 19.12 10.92 20.68Q10.32 22.24 9.48 24.40Q8.64 26.56 7.72 29Q6.80 31.44 6 33.64Q5.20 35.84 4.60 37.56Q4 39.28 3.92 40L3.92 40Q3.76 40.80 3.60 40.80L3.60 40.80Q3.44 40.80 3.40 40.48Q3.36 40.16 3.28 40L3.28 40Q2.88 39.04 2.92 37.20Q2.96 35.36 3.36 33.28Q3.76 31.20 4.36 29.04Q4.96 26.88 5.68 25.28" style="fill: rgb(253, 197, 52);" transform="translate(-113.444,-19.878)"></path></g><g class="path" style="opacity: 1; transform-origin: -61.24px 5.52px; transform: matrix3d(1, 0, 0, 0, 0, 1, 0, 0, 0, 0, 1, 0, 0, 0, 0, 1); animation: 1s linear -0.543529s infinite normal forwards running animate-ffrig66in1; transform-box: view-box;"><path d="M53.36 18.40L53.36 18.40Q52.96 22 52.12 25.60Q51.28 29.20 50.64 32L50.64 32Q50.32 33.04 50.16 32.96L50.16 32.96Q50 32.96 49.96 32.60Q49.92 32.24 49.84 31.84L49.84 31.84Q49.20 26.48 50 21.12Q50.80 15.76 51.76 10.16L51.76 10.16Q52.40 6.80 52.80 3.24Q53.20-0.32 52.80-4.40L52.80-4.40Q52.80-4.72 52.96-4.88L52.96-4.88Q53.12-4.88 53.16-4.68Q53.20-4.48 53.36-4.40L53.36-4.40Q54.56-2.64 54.76 0.44Q54.96 3.52 54.72 6.88Q54.48 10.24 54.04 13.36Q53.60 16.48 53.36 18.40" style="fill: rgb(100, 201, 222);" transform="translate(-113.444,-19.878)"></path></g><g class="path" style="opacity: 1; transform-origin: -95.98px -26.47px; transform: matrix3d(1, 0, 0, 0, 0, 1, 0, 0, 0, 0, 1, 0, 0, 0, 0, 1); animation: 1s linear -0.524118s infinite normal forwards running animate-ffrig66in1; transform-box: view-box;"><path d="M17.12-12.16L17.12-12.16Q16.96-13.84 16.68-15.28Q16.40-16.72 16-18.24L16-18.24Q15.92-18.40 15.92-18.64Q15.92-18.88 16-18.88L16-18.88Q16.24-18.88 16.48-18.64L16.48-18.64L16.80-18.32Q17.68-17.12 18.24-15.96Q18.80-14.80 18.96-12.16L18.96-12.16Q19.04-11.12 18.96-9.60Q18.88-8.08 18.68-6.72Q18.48-5.36 18.20-4.40Q17.92-3.44 17.68-3.52L17.68-3.52Q17.52-3.52 17.44-3.96Q17.36-4.40 17.32-4.96Q17.28-5.52 17.28-6.12Q17.28-6.72 17.28-6.96L17.28-6.96Q17.28-8.32 17.28-9.56Q17.28-10.80 17.12-12.16" style="fill: rgb(253, 102, 57);" transform="translate(-113.444,-19.878)"></path></g><g class="path" style="opacity: 1; transform-origin: -66.63px -27.97px; transform: matrix3d(1, 0, 0, 0, 0, 1, 0, 0, 0, 0, 1, 0, 0, 0, 0, 1); animation: 1s linear -0.504706s infinite normal forwards running animate-ffrig66in1; transform-box: view-box;"><path d="M46.40-13.20L46.40-13.20Q46.32-14.64 46.12-15.92Q45.92-17.20 45.52-18.56L45.52-18.56Q45.44-18.72 45.40-18.96Q45.36-19.20 45.52-19.12L45.52-19.12Q45.68-18.96 45.80-18.88Q45.92-18.80 46.08-18.72L46.08-18.72L46.24-18.56Q47.12-17.44 47.64-16.40Q48.16-15.36 48.24-12.96L48.24-12.96Q48.24-12.08 48.04-10.72Q47.84-9.36 47.56-8.12Q47.28-6.88 46.92-6.04Q46.56-5.20 46.24-5.36L46.24-5.36Q46.08-5.44 46.08-5.88Q46.08-6.32 46.08-6.84Q46.08-7.36 46.16-7.84Q46.24-8.32 46.24-8.56L46.24-8.56Q46.40-9.84 46.44-10.96Q46.48-12.08 46.40-13.20" style="fill: rgb(25, 91, 121);" transform="translate(-113.444,-19.878)"></path></g><g class="path" style="opacity: 1; transform-origin: -64.29px 17.08px; transform: matrix3d(1, 0, 0, 0, 0, 1, 0, 0, 0, 0, 1, 0, 0, 0, 0, 1); animation: 1s linear -0.485294s infinite normal forwards running animate-ffrig66in1; transform-box: view-box;"><path d="M49.20 34.16L49.20 34.16Q49.68 35.52 50.28 36.64Q50.88 37.76 51.52 38.88L51.52 38.88Q51.60 38.96 51.68 39.16Q51.76 39.36 51.60 39.36L51.60 39.36Q51.36 39.36 51.24 39.28Q51.12 39.20 50.96 39.12L50.96 39.12Q50.80 39.04 50.72 38.96L50.72 38.96Q49.60 38.08 48.88 37.28Q48.16 36.48 47.44 34.40L47.44 34.40Q47.20 33.60 46.96 32.40Q46.72 31.20 46.64 30.08Q46.56 28.96 46.64 28.16Q46.72 27.36 47.04 27.36L47.04 27.36Q47.12 27.36 47.28 27.72Q47.44 28.08 47.56 28.52Q47.68 28.96 47.80 29.40Q47.92 29.84 48 30L48 30Q48.40 31.12 48.64 32.16Q48.88 33.20 49.20 34.16" style="fill: rgb(253, 197, 52);" transform="translate(-113.444,-19.878)"></path></g><g class="path" style="opacity: 1; transform-origin: -28.41px 0.28px; transform: matrix3d(1, 0, 0, 0, 0, 1, 0, 0, 0, 0, 1, 0, 0, 0, 0, 1); animation: 1s linear -0.465882s infinite normal forwards running animate-ffrig66in1; transform-box: view-box;"><path d="M87.92 11.60L87.92 11.60Q87.28 14.80 85.76 18Q84.24 21.20 82.88 24L82.88 24Q82.80 24.16 82.52 24.56Q82.24 24.96 82.08 24.96L82.08 24.96Q81.84 24.88 81.84 24.44Q81.84 24 81.84 23.84L81.84 23.84Q81.92 23.12 82.12 22.12Q82.32 21.12 82.48 20.04Q82.64 18.96 82.84 17.96Q83.04 16.96 83.28 16.16L83.28 16.16Q84 13.44 84.48 11.48Q84.96 9.52 85.20 7.92Q85.44 6.32 85.48 4.88Q85.52 3.44 85.28 1.76L85.28 1.76Q85.20 1.12 85.36 0.96L85.36 0.96Q85.52 0.88 85.76 1.12Q86 1.36 86.16 1.60L86.16 1.60Q87.52 3.76 88 6.36Q88.48 8.96 87.92 11.60" style="fill: rgb(100, 201, 222);" transform="translate(-113.444,-19.878)"></path></g><g class="path" style="opacity: 1; transform-origin: -26.14px 9.69px; transform: matrix3d(1, 0, 0, 0, 0, 1, 0, 0, 0, 0, 1, 0, 0, 0, 0, 1); animation: 1s linear -0.446471s infinite normal forwards running animate-ffrig66in1; transform-box: view-box;"><path d="M89.52 5.76L89.84 6.24Q90.88 7.76 90.88 10.24Q90.88 12.72 90.40 15.32Q89.92 17.92 89.20 20.32Q88.48 22.72 88.16 24.16L88.16 24.16Q87.52 26.96 86.40 29.76Q85.28 32.56 84.48 34.72L84.48 34.72Q84.40 34.96 84.24 35.24Q84.08 35.52 83.92 35.52L83.92 35.52Q83.76 35.52 83.76 35.20Q83.76 34.88 83.76 34.64L83.76 34.64Q83.52 30.24 84.72 26.04Q85.92 21.84 87.28 17.52L87.28 17.52Q88.08 14.88 88.80 12.12Q89.52 9.36 89.44 6.08L89.44 6.08Q89.44 5.76 89.52 5.76L89.52 5.76" style="fill: rgb(253, 102, 57);" transform="translate(-113.444,-19.878)"></path></g><g class="path" style="opacity: 1; transform-origin: -42.89px 12.3px; transform: matrix3d(1, 0, 0, 0, 0, 1, 0, 0, 0, 0, 1, 0, 0, 0, 0, 1); animation: 1s linear -0.427059s infinite normal forwards running animate-ffrig66in1; transform-box: view-box;"><path d="M82.32 4.88L82.32 4.88Q77.44 6.88 74.04 10.60Q70.64 14.32 68.80 18.96L68.80 18.96Q68 21.04 67.60 22.68Q67.20 24.32 66.96 26.24L66.96 26.24Q66.88 26.64 67.20 27.04Q67.52 27.44 67.84 27.04L67.84 27.04Q69.28 25.28 71.52 22.56Q73.76 19.84 76 16.80Q78.24 13.76 80.04 10.64Q81.84 7.52 82.32 4.88 zM76.96 32L76.96 32Q75.76 33.68 74.64 35.12Q73.52 36.56 72.16 37.64Q70.80 38.72 69.12 39.36Q67.44 40 65.28 40.08L65.28 40.08Q61.68 40.24 59.80 38.24Q57.92 36.24 57.20 33.36Q56.48 30.48 56.68 27.40Q56.88 24.32 57.52 22.32L57.52 22.32Q58.40 19.52 59.64 17Q60.88 14.48 62.28 12.44Q63.68 10.40 65.16 8.92Q66.64 7.44 68.08 6.64L68.08 6.64Q68.16 6.64 68.44 6.48Q68.72 6.32 68.72 6.56L68.72 6.56Q68.80 6.56 68.64 6.80Q68.48 7.04 68.32 7.20L68.32 7.20Q64.16 11.52 61.72 16.96Q59.28 22.40 58.96 28.16L58.96 28.16Q58.88 29.60 59.08 31.28Q59.28 32.96 59.88 34.44Q60.48 35.92 61.60 36.92Q62.72 37.92 64.64 37.92L64.64 37.92Q66.16 37.92 67.44 37.40Q68.72 36.88 69.84 36.04Q70.96 35.20 71.88 34.20Q72.80 33.20 73.52 32.32L73.52 32.32Q75.12 30.32 76.48 28.16L76.48 28.16Q76.48 26.56 76.68 25.04Q76.88 23.52 77.28 22L77.28 22Q77.52 20.88 77.72 20.20Q77.92 19.52 78.12 18.92Q78.32 18.32 78.52 17.64Q78.72 16.96 79.12 15.84L79.12 15.84Q77.84 18.08 76.60 20.04Q75.36 22 73.96 23.80Q72.56 25.60 71.08 27.32Q69.60 29.04 67.84 30.80L67.84 30.80Q66.48 32.16 65.60 31.68Q64.72 31.20 64.56 29.44L64.56 29.44Q64.40 26.72 64.84 24.16Q65.28 21.60 66.40 18.80L66.40 18.80Q67.44 16.24 69 13.84Q70.56 11.44 72.60 9.48Q74.64 7.52 77.12 6.12Q79.60 4.72 82.40 4.24L82.40 4.24Q82.56 3.36 82.68 2.72Q82.80 2.08 82.88 1.44L82.88 1.44Q83.04 0.56 83.04 0.56L83.04 0.56Q83.20 0.48 83.40 0.72Q83.60 0.96 83.76 1.36L83.76 1.36Q84.72 4 84.40 6.64Q84.08 9.28 83.24 12Q82.40 14.72 81.28 17.56Q80.16 20.40 79.44 23.28L79.44 23.28Q78.48 27.36 78.92 31.72Q79.36 36.08 82.32 39.60L82.32 39.60Q82.56 39.92 82.56 39.92L82.56 39.92Q82.48 40 82.08 39.76L82.08 39.76Q79.76 38.32 78.60 36.28Q77.44 34.24 76.96 32" style="fill: rgb(25, 91, 121);" transform="translate(-113.444,-19.878)"></path></g><g class="path" style="opacity: 1; transform-origin: -43.38px 9.75px; transform: matrix3d(1, 0, 0, 0, 0, 1, 0, 0, 0, 0, 1, 0, 0, 0, 0, 1); animation: 1s linear -0.407647s infinite normal forwards running animate-ffrig66in1; transform-box: view-box;"><path d="M79.76 3.68L79.76 3.68Q79.92 3.84 79.72 3.92Q79.52 4 78.88 4.16L78.88 4.16Q77.84 4.48 76.36 5.36Q74.88 6.24 73.24 7.60Q71.60 8.96 70 10.76Q68.40 12.56 67.20 14.64L67.20 14.64Q66 16.80 65.16 18.88Q64.32 20.96 63.80 22.68Q63.28 24.40 63.04 25.64Q62.80 26.88 62.80 27.36L62.80 27.36Q62.80 28.56 62.80 29.88Q62.80 31.20 63.12 32.24Q63.44 33.28 64.24 33.84Q65.04 34.40 66.64 34.16L66.64 34.16Q66.72 34.16 67.04 34.04Q67.36 33.92 67.68 33.80Q68 33.68 68.28 33.60Q68.56 33.52 68.64 33.52L68.64 33.52Q68.72 33.68 68.52 33.92Q68.32 34.16 68 34.44Q67.68 34.72 67.40 34.96Q67.12 35.20 67.04 35.28L67.04 35.28Q65.04 36.48 63.68 36Q62.32 35.52 61.56 34.20Q60.80 32.88 60.52 31.08Q60.24 29.28 60.32 27.84L60.32 27.84Q60.48 25.04 61.20 22.28Q61.92 19.52 63.04 16.72L63.04 16.72Q63.92 14.56 65.68 12.28Q67.44 10 69.64 8.08Q71.84 6.16 74.24 4.92Q76.64 3.68 78.88 3.60L78.88 3.60Q79.68 3.60 79.76 3.68" style="fill: rgb(253, 197, 52);" transform="translate(-113.444,-19.878)"></path></g><g class="path" style="opacity: 1; transform-origin: -30.79px 18.17px; transform: matrix3d(1, 0, 0, 0, 0, 1, 0, 0, 0, 0, 1, 0, 0, 0, 0, 1); animation: 1s linear -0.388235s infinite normal forwards running animate-ffrig66in1; transform-box: view-box;"><path d="M84.48 39.60L84.48 39.60Q84.64 39.84 84.56 39.92L84.56 39.92Q84.32 39.92 83.92 39.76L83.92 39.76Q83.68 39.60 82.64 38.80Q81.60 38 81.12 36.24L81.12 36.24Q80.96 35.60 80.84 34.60Q80.72 33.60 80.72 32.72Q80.72 31.84 80.84 31.20Q80.96 30.56 81.20 30.56L81.20 30.56Q81.44 30.56 81.72 31.52Q82 32.48 82.08 32.72L82.08 32.72Q82.32 33.84 82.52 34.68Q82.72 35.52 82.96 36.24L82.96 36.24Q83.28 37.12 83.80 38.24Q84.32 39.36 84.48 39.60" style="fill: rgb(100, 201, 222);" transform="translate(-113.444,-19.878)"></path></g><g class="path" style="opacity: 1; transform-origin: 2.46px 2.18px; transform: matrix3d(1, 0, 0, 0, 0, 1, 0, 0, 0, 0, 1, 0, 0, 0, 0, 1); animation: 1s linear -0.368824s infinite normal forwards running animate-ffrig66in1; transform-box: view-box;"><path d="M118.80 14.48L118.80 14.48Q117.84 17.44 116.52 20.16Q115.20 22.88 113.76 25.60L113.76 25.60Q113.60 25.76 113.28 26.36Q112.96 26.96 112.72 26.80L112.72 26.80Q112.56 26.80 112.60 26.32Q112.64 25.84 112.64 25.60L112.64 25.60Q112.72 24.96 113 23.76Q113.28 22.56 113.64 21.24Q114 19.92 114.36 18.68Q114.72 17.44 114.96 16.72L114.96 16.72Q116.32 12.40 116.72 9.04Q117.12 5.68 116.24 3.36L116.24 3.36Q116.08 2.96 116.24 2.96L116.24 2.96Q116.40 2.96 116.56 3.12Q116.72 3.28 116.80 3.36L116.80 3.36Q117.68 4.32 118.24 5.80Q118.80 7.28 119.04 8.84Q119.28 10.40 119.20 11.92Q119.12 13.44 118.80 14.48" style="fill: rgb(253, 102, 57);" transform="translate(-113.444,-19.878)"></path></g><g class="path" style="opacity: 1; transform-origin: 4.6px 11.42px; transform: matrix3d(1, 0, 0, 0, 0, 1, 0, 0, 0, 0, 1, 0, 0, 0, 0, 1); animation: 1s linear -0.349412s infinite normal forwards running animate-ffrig66in1; transform-box: view-box;"><path d="M120.96 8.72L120.96 8.72Q122 10.32 121.92 12.72Q121.84 15.12 121.32 17.68Q120.80 20.24 120.04 22.56Q119.28 24.88 118.88 26.24L118.88 26.24Q118.08 28.88 116.96 31.64Q115.84 34.40 114.96 36.40L114.96 36.40Q114.64 37.12 114.48 37.04L114.48 37.04Q114.24 36.96 114.20 36.68Q114.16 36.40 114.16 36.24L114.16 36.24Q114.16 31.92 115.40 27.92Q116.64 23.92 118.08 19.84L118.08 19.84Q118.96 17.20 119.68 14.60Q120.40 12 120.40 8.88L120.40 8.88Q120.40 8.32 120.56 8.32L120.56 8.32Q120.64 8.32 120.72 8.44Q120.80 8.56 120.96 8.72" style="fill: rgb(25, 91, 121);" transform="translate(-113.444,-19.878)"></path></g><g class="path" style="opacity: 1; transform-origin: -13.79px 9.51px; transform: matrix3d(1, 0, 0, 0, 0, 1, 0, 0, 0, 0, 1, 0, 0, 0, 0, 1); animation: 1s linear -0.33s infinite normal forwards running animate-ffrig66in1; transform-box: view-box;"><path d="M104.96 33.84L104.96 33.84Q105.12 34.08 104.40 34.56Q103.68 35.04 103.44 35.12L103.44 35.12Q99.92 36.40 97.96 35.20Q96 34 95.16 31.60Q94.32 29.20 94.32 26.28Q94.32 23.36 94.64 21.04L94.64 21.04Q94.88 19.04 95.56 16.60Q96.24 14.16 97.20 11.80Q98.16 9.44 99.40 7.40Q100.64 5.36 102.08 4.24L102.08 4.24Q102.24 4.16 102.44 4Q102.64 3.84 102.80 3.84L102.80 3.84Q103.04 3.92 102.56 4.72L102.56 4.72Q102.08 5.52 101.40 6.96Q100.72 8.40 100 10.28Q99.28 12.16 98.60 14.24Q97.92 16.32 97.52 18.40L97.52 18.40Q97.12 20.48 96.96 22.40Q96.80 24.32 96.80 25.84Q96.80 27.36 96.88 28.40Q96.96 29.44 97.04 29.76L97.04 29.76Q97.60 32.24 99.16 33.40Q100.72 34.56 103.36 34.08L103.36 34.08Q103.44 34.08 104.16 33.92Q104.88 33.76 104.96 33.84" style="fill: rgb(253, 197, 52);" transform="translate(-113.444,-19.878)"></path></g><g class="path" style="opacity: 1; transform-origin: 0px 19.05px; transform: matrix3d(1, 0, 0, 0, 0, 1, 0, 0, 0, 0, 1, 0, 0, 0, 0, 1); animation: 1s linear -0.310588s infinite normal forwards running animate-ffrig66in1; transform-box: view-box;"><path d="M115.28 40L115.28 40Q115.60 40.32 115.60 40.48L115.60 40.48Q115.60 40.64 115.24 40.56Q114.88 40.48 114.72 40.40L114.72 40.40Q114.08 40.08 113.12 39.48Q112.16 38.88 111.68 37.36L111.68 37.36Q111.44 36.72 111.36 35.80Q111.28 34.88 111.28 34.08Q111.28 33.28 111.44 32.76Q111.60 32.24 111.84 32.32L111.84 32.32Q112 32.40 112.20 33.04Q112.40 33.68 112.56 34.40L112.56 34.40Q112.72 35.28 112.96 36.04Q113.20 36.80 113.52 37.60L113.52 37.60Q113.92 38.48 114.32 39Q114.72 39.52 115.28 40" style="fill: rgb(100, 201, 222);" transform="translate(-113.444,-19.878)"></path></g><g class="path" style="opacity: 1; transform-origin: -9.94px 12.88px; transform: matrix3d(1, 0, 0, 0, 0, 1, 0, 0, 0, 0, 1, 0, 0, 0, 0, 1); animation: 1s linear -0.291176s infinite normal forwards running animate-ffrig66in1; transform-box: view-box;"><path d="M107.92 35.60L107.92 35.60Q107.04 36.96 105.24 38.36Q103.44 39.76 100.40 39.76L100.40 39.76Q98 39.76 96.28 38.48Q94.56 37.20 93.48 35.28Q92.40 33.36 91.96 31.08Q91.52 28.80 91.52 26.72L91.52 26.72Q91.60 24.16 91.96 21.60Q92.32 19.04 92.92 16.80Q93.52 14.56 94.28 12.80Q95.04 11.04 95.84 9.92L95.84 9.92Q96 9.84 96.20 9.56Q96.40 9.28 96.56 9.44L96.56 9.44Q96.64 9.52 96.52 9.80Q96.40 10.08 96.32 10.24L96.32 10.24Q95.60 12.64 94.92 15.32Q94.24 18 93.84 20.72Q93.44 23.44 93.44 26.08Q93.44 28.72 93.92 30.96L93.92 30.96Q94.24 32.48 95.08 33.76Q95.92 35.04 96.92 35.92Q97.92 36.80 99.08 37.20Q100.24 37.60 101.36 37.44L101.36 37.44Q103.68 37.12 104.88 36.12Q106.08 35.12 106.60 33.72Q107.12 32.32 107.24 30.68Q107.36 29.04 107.60 27.36L107.60 27.36Q107.20 28.48 106.04 29.56Q104.88 30.64 103.56 31.24Q102.24 31.84 101 31.76Q99.76 31.68 99.12 30.32L99.12 30.32Q98.32 28.56 98.24 26.48Q98.16 24.40 98.32 21.92L98.32 21.92Q98.48 19.44 99.04 16.80Q99.60 14.16 100.56 11.72Q101.52 9.28 102.84 7.12Q104.16 4.96 105.84 3.28L105.84 3.28L106.16 2.96Q106.40 2.72 106.64 2.72L106.64 2.72Q106.64 2.72 106.32 3.52L106.32 3.52Q104 7.84 102.40 12.44Q100.80 17.04 100.48 21.76L100.48 21.76Q100.08 26.96 101 28.56Q101.92 30.16 103.28 29.48Q104.64 28.80 106.20 26.52Q107.76 24.24 108.72 21.60L108.72 21.60Q109.60 19.20 110.60 16.64Q111.60 14.08 112.44 11.48Q113.28 8.88 113.72 6.40Q114.16 3.92 113.92 1.76L113.92 1.76Q113.92 1.36 114.08 1.36L114.08 1.36Q114.16 1.36 114.16 1.44L114.16 1.44Q114.16 1.60 114.24 1.60L114.24 1.60Q114.32 1.68 114.32 1.76L114.32 1.76Q115.60 4.48 115.48 7.28Q115.36 10.08 114.52 12.96Q113.68 15.84 112.52 18.84Q111.36 21.84 110.56 24.88L110.56 24.88Q110.08 26.80 109.84 28.92Q109.60 31.04 109.76 33.12Q109.92 35.20 110.64 37.08Q111.36 38.96 112.72 40.24L112.72 40.24Q112.88 40.40 112.88 40.48L112.88 40.48Q112.88 40.64 112.68 40.60Q112.48 40.56 112.32 40.48L112.32 40.48Q110.80 39.92 109.68 38.64Q108.56 37.36 107.92 35.60" style="fill: rgb(253, 102, 57);" transform="translate(-113.444,-19.878)"></path></g><g class="path" style="opacity: 1; transform-origin: 25.33px 3.85px; transform: matrix3d(1, 0, 0, 0, 0, 1, 0, 0, 0, 0, 1, 0, 0, 0, 0, 1); animation: 1s linear -0.271765s infinite normal forwards running animate-ffrig66in1; transform-box: view-box;"><path d="M132.64 10.24L132.64 10.24Q132.72 9.52 133.12 8.52Q133.52 7.52 134.20 6.60Q134.88 5.68 135.84 4.92Q136.80 4.16 138 3.92L138 3.92Q140.56 3.44 142.24 4.24Q143.92 5.04 144.80 6.08L144.80 6.08Q145.12 6.56 145.04 6.64L145.04 6.64Q144.88 6.80 144.48 6.56L144.48 6.56Q144 6.24 142.92 6Q141.84 5.76 140.60 5.88Q139.36 6 138.20 6.64Q137.04 7.28 136.32 8.72L136.32 8.72Q135.68 10.08 135.44 11.52Q135.20 12.96 135.16 14.20Q135.12 15.44 135.20 16.32Q135.28 17.20 135.28 17.52L135.28 17.52Q135.44 18.40 135.56 19.72Q135.68 21.04 135.68 22.40Q135.68 23.76 135.60 25.08Q135.52 26.40 135.28 27.36L135.28 27.36Q135.20 27.60 135.08 28.16Q134.96 28.72 134.80 28.72L134.80 28.72Q134.40 28.72 134.40 28.16Q134.40 27.60 134.40 27.36L134.40 27.36Q134.24 25.36 133.84 23.32Q133.44 21.28 133.08 19.12Q132.72 16.96 132.56 14.76Q132.40 12.56 132.64 10.24" style="fill: rgb(25, 91, 121);" transform="translate(-113.444,-19.878)"></path></g><g class="path" style="opacity: 1; transform-origin: 18.68px 8.33px; transform: matrix3d(1, 0, 0, 0, 0, 1, 0, 0, 0, 0, 1, 0, 0, 0, 0, 1); animation: 1s linear -0.252353s infinite normal forwards running animate-ffrig66in1; transform-box: view-box;"><path d="M129.84 26.08L129.84 26.08Q129.92 24.48 129.56 21.56Q129.20 18.64 129.28 14.80L129.28 14.80Q129.36 12.80 129.68 10.68Q130 8.56 131.20 6.48L131.20 6.48Q132.48 4.24 134.44 3.16Q136.40 2.08 137.84 2.16L137.84 2.16Q138.08 2.16 138.32 2.16Q138.56 2.16 138.56 2.24L138.56 2.24Q138.56 2.40 138.48 2.36Q138.40 2.32 137.92 2.48L137.92 2.48Q136.48 2.88 135.36 3.80Q134.24 4.72 133.44 5.92Q132.64 7.12 132.16 8.40Q131.68 9.68 131.60 10.72L131.60 10.72Q131.12 15.12 131.68 18.40L131.68 18.40Q132.08 21.04 132.32 23.88Q132.56 26.72 132.12 29.08Q131.68 31.44 130.44 33Q129.20 34.56 126.64 34.72L126.64 34.72Q126.40 34.72 126.04 34.68Q125.68 34.64 125.68 34.48L125.68 34.48Q125.68 34.32 126.40 33.92L126.40 33.92Q128.48 32.96 129.12 31.12Q129.76 29.28 129.84 26.08" style="fill: rgb(253, 197, 52);" transform="translate(-113.444,-19.878)"></path></g><g class="path" style="opacity: 1; transform-origin: 20.04px 13.48px; transform: matrix3d(1, 0, 0, 0, 0, 1, 0, 0, 0, 0, 1, 0, 0, 0, 0, 1); animation: 1s linear -0.232941s infinite normal forwards running animate-ffrig66in1; transform-box: view-box;"><path d="M121.36 35.52L121.36 35.52Q122.48 37.28 124.92 38.12Q127.36 38.96 130.72 38L130.72 38Q132.40 37.52 133.68 36.32Q134.96 35.12 135.80 33.64Q136.64 32.16 137.08 30.56Q137.52 28.96 137.60 27.60L137.60 27.60Q137.68 25.36 137.48 23.20Q137.28 21.04 137 19Q136.72 16.96 136.52 15.04Q136.32 13.12 136.48 11.28L136.48 11.28Q136.64 9.28 137.60 8.24Q138.56 7.20 139.96 6.92Q141.36 6.64 142.88 7.12Q144.40 7.60 145.68 8.64L145.68 8.64Q146 8.80 145.92 9.04L145.92 9.04Q145.92 9.20 145.76 9.12Q145.60 9.04 145.44 8.96L145.44 8.96Q142.48 8 140.84 8.40Q139.20 8.80 139.04 11.28L139.04 11.28Q138.88 14.16 139.48 18.04Q140.08 21.92 139.92 26.64L139.92 26.64Q140 28.24 139.56 30.32Q139.12 32.40 138.12 34.36Q137.12 36.32 135.48 37.84Q133.84 39.36 131.60 39.76L131.60 39.76Q127.36 40.40 124.84 39.28Q122.32 38.16 121.20 35.84L121.20 35.84Q121.04 35.36 121.04 35.28L121.04 35.28L121.12 35.28Q121.12 35.28 121.36 35.52" style="fill: rgb(100, 201, 222);" transform="translate(-113.444,-19.878)"></path></g><g class="path" style="opacity: 1; transform-origin: 12.85px 16.7px; transform: matrix3d(1, 0, 0, 0, 0, 1, 0, 0, 0, 0, 1, 0, 0, 0, 0, 1); animation: 1s linear -0.213529s infinite normal forwards running animate-ffrig66in1; transform-box: view-box;"><path d="M124.88 35.52L124.88 35.52Q126.40 35.92 128.56 35.84L128.56 35.84Q129.28 35.76 130.32 35.44Q131.36 35.12 131.44 35.28L131.44 35.28Q131.68 35.60 130.96 36.08Q130.24 36.56 129.12 36.92Q128 37.28 126.80 37.40Q125.60 37.52 124.80 37.20L124.80 37.20Q123.28 36.56 122.60 35.80Q121.92 35.04 121.36 33.92L121.36 33.92L121.20 33.60Q121.04 33.28 121.12 33.20L121.12 33.20Q121.20 33.12 121.36 33.20L121.36 33.20Q121.44 33.28 121.44 33.36L121.44 33.36Q122.40 34.24 123.08 34.68Q123.76 35.12 124.88 35.52" style="fill: rgb(253, 102, 57);" transform="translate(-113.444,-19.878)"></path></g><g class="path" style="opacity: 1; transform-origin: 60.39px 0.28px; transform: matrix3d(1, 0, 0, 0, 0, 1, 0, 0, 0, 0, 1, 0, 0, 0, 0, 1); animation: 1s linear -0.194118s infinite normal forwards running animate-ffrig66in1; transform-box: view-box;"><path d="M176.72 11.60L176.72 11.60Q176.08 14.80 174.56 18Q173.04 21.20 171.68 24L171.68 24Q171.60 24.16 171.32 24.56Q171.04 24.96 170.88 24.96L170.88 24.96Q170.64 24.88 170.64 24.44Q170.64 24 170.64 23.84L170.64 23.84Q170.72 23.12 170.92 22.12Q171.12 21.12 171.28 20.04Q171.44 18.96 171.64 17.96Q171.84 16.96 172.08 16.16L172.08 16.16Q172.80 13.44 173.28 11.48Q173.76 9.52 174 7.92Q174.24 6.32 174.28 4.88Q174.32 3.44 174.08 1.76L174.08 1.76Q174 1.12 174.16 0.96L174.16 0.96Q174.32 0.88 174.56 1.12Q174.80 1.36 174.96 1.60L174.96 1.60Q176.32 3.76 176.80 6.36Q177.28 8.96 176.72 11.60" style="fill: rgb(25, 91, 121);" transform="translate(-113.444,-19.878)"></path></g><g class="path" style="opacity: 1; transform-origin: 62.66px 9.69px; transform: matrix3d(1, 0, 0, 0, 0, 1, 0, 0, 0, 0, 1, 0, 0, 0, 0, 1); animation: 1s linear -0.174706s infinite normal forwards running animate-ffrig66in1; transform-box: view-box;"><path d="M178.32 5.76L178.64 6.24Q179.68 7.76 179.68 10.24Q179.68 12.72 179.20 15.32Q178.72 17.92 178 20.32Q177.28 22.72 176.96 24.16L176.96 24.16Q176.32 26.96 175.20 29.76Q174.08 32.56 173.28 34.72L173.28 34.72Q173.20 34.96 173.04 35.24Q172.88 35.52 172.72 35.52L172.72 35.52Q172.56 35.52 172.56 35.20Q172.56 34.88 172.56 34.64L172.56 34.64Q172.32 30.24 173.52 26.04Q174.72 21.84 176.08 17.52L176.08 17.52Q176.88 14.88 177.60 12.12Q178.32 9.36 178.24 6.08L178.24 6.08Q178.24 5.76 178.32 5.76L178.32 5.76" style="fill: rgb(253, 197, 52);" transform="translate(-113.444,-19.878)"></path></g><g class="path" style="opacity: 1; transform-origin: 45.91px 12.3px; transform: matrix3d(1, 0, 0, 0, 0, 1, 0, 0, 0, 0, 1, 0, 0, 0, 0, 1); animation: 1s linear -0.155294s infinite normal forwards running animate-ffrig66in1; transform-box: view-box;"><path d="M171.12 4.88L171.12 4.88Q166.24 6.88 162.84 10.60Q159.44 14.32 157.60 18.96L157.60 18.96Q156.80 21.04 156.40 22.68Q156 24.32 155.76 26.24L155.76 26.24Q155.68 26.64 156 27.04Q156.32 27.44 156.64 27.04L156.64 27.04Q158.08 25.28 160.32 22.56Q162.56 19.84 164.80 16.80Q167.04 13.76 168.84 10.64Q170.64 7.52 171.12 4.88 zM165.76 32L165.76 32Q164.56 33.68 163.44 35.12Q162.32 36.56 160.96 37.64Q159.60 38.72 157.92 39.36Q156.24 40 154.08 40.08L154.08 40.08Q150.48 40.24 148.60 38.24Q146.72 36.24 146 33.36Q145.28 30.48 145.48 27.40Q145.68 24.32 146.32 22.32L146.32 22.32Q147.20 19.52 148.44 17Q149.68 14.48 151.08 12.44Q152.48 10.40 153.96 8.92Q155.44 7.44 156.88 6.64L156.88 6.64Q156.96 6.64 157.24 6.48Q157.52 6.32 157.52 6.56L157.52 6.56Q157.60 6.56 157.44 6.80Q157.28 7.04 157.12 7.20L157.12 7.20Q152.96 11.52 150.52 16.96Q148.08 22.40 147.76 28.16L147.76 28.16Q147.68 29.60 147.88 31.28Q148.08 32.96 148.68 34.44Q149.28 35.92 150.40 36.92Q151.52 37.92 153.44 37.92L153.44 37.92Q154.96 37.92 156.24 37.40Q157.52 36.88 158.64 36.04Q159.76 35.20 160.68 34.20Q161.60 33.20 162.32 32.32L162.32 32.32Q163.92 30.32 165.28 28.16L165.28 28.16Q165.28 26.56 165.48 25.04Q165.68 23.52 166.08 22L166.08 22Q166.32 20.88 166.52 20.20Q166.72 19.52 166.92 18.92Q167.12 18.32 167.32 17.64Q167.52 16.96 167.92 15.84L167.92 15.84Q166.64 18.08 165.40 20.04Q164.16 22 162.76 23.80Q161.36 25.60 159.88 27.32Q158.40 29.04 156.64 30.80L156.64 30.80Q155.28 32.16 154.40 31.68Q153.52 31.20 153.36 29.44L153.36 29.44Q153.20 26.72 153.64 24.16Q154.08 21.60 155.20 18.80L155.20 18.80Q156.24 16.24 157.80 13.84Q159.36 11.44 161.40 9.48Q163.44 7.52 165.92 6.12Q168.40 4.72 171.20 4.24L171.20 4.24Q171.36 3.36 171.48 2.72Q171.60 2.08 171.68 1.44L171.68 1.44Q171.84 0.56 171.84 0.56L171.84 0.56Q172 0.48 172.20 0.72Q172.40 0.96 172.56 1.36L172.56 1.36Q173.52 4 173.20 6.64Q172.88 9.28 172.04 12Q171.20 14.72 170.08 17.56Q168.96 20.40 168.24 23.28L168.24 23.28Q167.28 27.36 167.72 31.72Q168.16 36.08 171.12 39.60L171.12 39.60Q171.36 39.92 171.36 39.92L171.36 39.92Q171.28 40 170.88 39.76L170.88 39.76Q168.56 38.32 167.40 36.28Q166.24 34.24 165.76 32" style="fill: rgb(100, 201, 222);" transform="translate(-113.444,-19.878)"></path></g><g class="path" style="opacity: 1; transform-origin: 45.42px 9.75px; transform: matrix3d(1, 0, 0, 0, 0, 1, 0, 0, 0, 0, 1, 0, 0, 0, 0, 1); animation: 1s linear -0.135882s infinite normal forwards running animate-ffrig66in1; transform-box: view-box;"><path d="M168.56 3.68L168.56 3.68Q168.72 3.84 168.52 3.92Q168.32 4 167.68 4.16L167.68 4.16Q166.64 4.48 165.16 5.36Q163.68 6.24 162.04 7.60Q160.40 8.96 158.80 10.76Q157.20 12.56 156 14.64L156 14.64Q154.80 16.80 153.96 18.88Q153.12 20.96 152.60 22.68Q152.08 24.40 151.84 25.64Q151.60 26.88 151.60 27.36L151.60 27.36Q151.60 28.56 151.60 29.88Q151.60 31.20 151.92 32.24Q152.24 33.28 153.04 33.84Q153.84 34.40 155.44 34.16L155.44 34.16Q155.52 34.16 155.84 34.04Q156.16 33.92 156.48 33.80Q156.80 33.68 157.08 33.60Q157.36 33.52 157.44 33.52L157.44 33.52Q157.52 33.68 157.32 33.92Q157.12 34.16 156.80 34.44Q156.48 34.72 156.20 34.96Q155.92 35.20 155.84 35.28L155.84 35.28Q153.84 36.48 152.48 36Q151.12 35.52 150.36 34.20Q149.60 32.88 149.32 31.08Q149.04 29.28 149.12 27.84L149.12 27.84Q149.28 25.04 150 22.28Q150.72 19.52 151.84 16.72L151.84 16.72Q152.72 14.56 154.48 12.28Q156.24 10 158.44 8.08Q160.64 6.16 163.04 4.92Q165.44 3.68 167.68 3.60L167.68 3.60Q168.48 3.60 168.56 3.68" style="fill: rgb(253, 102, 57);" transform="translate(-113.444,-19.878)"></path></g><g class="path" style="opacity: 1; transform-origin: 58.01px 18.17px; transform: matrix3d(1, 0, 0, 0, 0, 1, 0, 0, 0, 0, 1, 0, 0, 0, 0, 1); animation: 1s linear -0.116471s infinite normal forwards running animate-ffrig66in1; transform-box: view-box;"><path d="M173.28 39.60L173.28 39.60Q173.44 39.84 173.36 39.92L173.36 39.92Q173.12 39.92 172.72 39.76L172.72 39.76Q172.48 39.60 171.44 38.80Q170.40 38 169.92 36.24L169.92 36.24Q169.76 35.60 169.64 34.60Q169.52 33.60 169.52 32.72Q169.52 31.84 169.64 31.20Q169.76 30.56 170 30.56L170 30.56Q170.24 30.56 170.52 31.52Q170.80 32.48 170.88 32.72L170.88 32.72Q171.12 33.84 171.32 34.68Q171.52 35.52 171.76 36.24L171.76 36.24Q172.08 37.12 172.60 38.24Q173.12 39.36 173.28 39.60" style="fill: rgb(25, 91, 121);" transform="translate(-113.444,-19.878)"></path></g><g class="path" style="opacity: 1; transform-origin: 94.48px 12.6px; transform: matrix3d(1, 0, 0, 0, 0, 1, 0, 0, 0, 0, 1, 0, 0, 0, 0, 1); animation: 1s linear -0.0970588s infinite normal forwards running animate-ffrig66in1; transform-box: view-box;"><path d="M201.84 19.52L201.84 19.52Q200.72 24.32 200.32 29.52Q199.92 34.72 200.96 39.60L200.96 39.60Q201.04 39.76 200.92 39.96Q200.80 40.16 200.64 39.76L200.64 39.76Q199.28 37.12 198.76 34.40Q198.24 31.68 198.24 29Q198.24 26.32 198.64 23.60Q199.04 20.88 199.68 18.24L199.68 18.24Q199.76 17.92 200 16.92Q200.24 15.92 200.36 14.92Q200.48 13.92 200.32 13.36Q200.16 12.80 199.36 13.36L199.36 13.36Q197.52 14.72 195.96 16.76Q194.40 18.80 193.44 20.72L193.44 20.72Q193.36 20.88 193.08 21.64Q192.80 22.40 192.52 23.28Q192.24 24.16 192 25Q191.76 25.84 191.68 26.08L191.68 26.08Q191.04 28.56 190.08 30.80Q189.12 33.04 188.48 34.96L188.48 34.96Q188.24 35.76 188.16 35.68L188.16 35.68Q187.76 35.68 187.76 34.96L187.76 34.96Q187.36 31.04 188.44 27.40Q189.52 23.76 190.80 19.92L190.80 19.92Q191.60 17.44 192.28 15Q192.96 12.56 192.88 9.60L192.88 9.60Q192.80 7.52 194.44 5.52Q196.08 3.52 199.36 2.16L199.36 2.16Q201.28 1.36 202.96 1.44Q204.64 1.52 206.08 2.16Q207.52 2.80 208.64 4Q209.76 5.20 210.48 6.64L210.48 6.64Q210.96 5.76 211.92 4.76Q212.88 3.76 214.20 3.04Q215.52 2.32 217.16 1.96Q218.80 1.60 220.80 1.92L220.80 1.92Q222.24 2.16 223.32 2.88Q224.40 3.60 225.24 4.52Q226.08 5.44 226.56 6.40Q227.04 7.36 227.28 8L227.28 8Q228.16 10.64 228.20 13.92Q228.24 17.20 227.52 19.84L227.52 19.84Q226.32 24.16 224.68 27.52Q223.04 30.88 222.48 33.52L222.48 33.52Q222.24 34.40 222.16 34.40L222.16 34.40Q221.84 34.40 221.80 34.08Q221.76 33.76 221.68 33.44L221.68 33.44Q221.52 31.76 222.12 29.16Q222.72 26.56 223.52 23.56Q224.32 20.56 224.96 17.44Q225.60 14.32 225.52 11.64Q225.44 8.96 224.32 6.96Q223.20 4.96 220.48 4.24L220.48 4.24Q218.32 3.68 216.68 4.20Q215.04 4.72 213.92 5.36L213.92 5.36Q212.24 6.48 211.76 7.72Q211.28 8.96 211.28 10.08L211.28 10.08Q212.64 7.60 214.88 6.12Q217.12 4.64 220.16 5.60L220.16 5.60Q222.16 6.24 223 8Q223.84 9.76 223.92 11.92Q224 14.08 223.48 16.24Q222.96 18.40 222.24 19.84L222.24 19.84Q222.16 20 221.84 20.60Q221.52 21.20 221.12 21.12L221.12 21.12Q221.04 21.12 221.08 20.48Q221.12 19.84 221.12 19.52L221.12 19.52Q221.36 18.56 221.44 17.28Q221.52 16 221.48 14.64Q221.44 13.28 221.28 12Q221.12 10.72 220.80 9.84L220.80 9.84Q220.40 8.72 219.56 8.36Q218.72 8 217.76 8.16Q216.80 8.32 215.88 8.80Q214.96 9.28 214.32 9.84L214.32 9.84Q212.56 11.36 212.16 12.60Q211.76 13.84 211.52 15.44L211.52 15.44Q212.48 13.84 213.88 12.44Q215.28 11.04 216.64 10.16L216.64 10.16Q217.36 9.84 217.88 9.92Q218.40 10 218.76 10.36Q219.12 10.72 219.28 11.24Q219.44 11.76 219.52 12.16L219.52 12.16Q219.76 14.80 219.32 16.80Q218.88 18.80 218.28 20.92Q217.68 23.04 217.32 25.64Q216.96 28.24 217.44 32.08L217.44 32.08Q217.84 34.88 219.12 37.12Q220.40 39.36 222.32 39.92L222.32 39.92Q222.88 40.08 222.60 40.16Q222.32 40.24 222.16 40.24L222.16 40.24Q220.72 40.08 219.44 39.12Q218.16 38.16 217.16 36.72Q216.16 35.28 215.52 33.52Q214.88 31.76 214.80 30L214.80 30Q214.56 26.40 215.24 23.16Q215.92 19.92 216.56 17.60L216.56 17.60Q216.72 16.96 216.92 15.96Q217.12 14.96 217.08 14.24Q217.04 13.52 216.56 13.40Q216.08 13.28 214.96 14.32L214.96 14.32Q213.36 15.76 212.16 17.44Q210.96 19.12 210.40 21.20L210.40 21.20Q208.56 27.84 205.12 33.92L205.12 33.92Q204.96 34.24 204.72 34.52Q204.48 34.80 204.40 34.72L204.40 34.72Q204.24 34.72 204.32 34.32Q204.40 33.92 204.48 33.52L204.48 33.52Q204.96 30.72 205.68 28.08Q206.40 25.44 207.08 22.68Q207.76 19.92 208.28 17Q208.80 14.08 208.88 10.72L208.88 10.72Q208.72 9.60 208.44 8.40Q208.16 7.20 206.80 5.60L206.80 5.60Q205.20 3.84 203.04 3.76Q200.88 3.68 199.52 4.16L199.52 4.16Q198.64 4.40 197.64 5.04Q196.64 5.68 195.80 6.56Q194.96 7.44 194.44 8.60Q193.92 9.76 194.16 11.12L194.16 11.12Q195.04 9.52 196.20 8Q197.36 6.48 199.20 5.68L199.20 5.68Q199.76 5.44 200.64 5.24Q201.52 5.04 202.48 5Q203.44 4.96 204.40 5.28Q205.36 5.60 206.08 6.48L206.08 6.48Q207.36 8.08 207.48 9.36Q207.60 10.64 207.52 11.92L207.52 11.92Q207.36 14.24 206.80 16.28Q206.24 18.32 205.36 20.16L205.36 20.16Q205.28 20.40 204.96 20.92Q204.64 21.44 204.48 21.44L204.48 21.44Q204.32 21.36 204.28 20.76Q204.24 20.16 204.40 19.92L204.40 19.92Q204.48 19.04 204.64 17.32Q204.80 15.60 204.84 13.72Q204.88 11.84 204.64 10.28Q204.40 8.72 203.60 8.08L203.60 8.08Q202.88 7.52 201.44 7.76Q200 8 198.88 8.88L198.88 8.88Q197.76 9.76 197 10.56Q196.24 11.36 195.76 12.20Q195.28 13.04 194.92 14.04Q194.56 15.04 194.32 16.40L194.32 16.40Q195.28 14.56 196.56 12.96Q197.84 11.36 199.68 10.24L199.68 10.24Q200.96 9.36 201.68 9.52Q202.40 9.68 202.68 10.40Q202.96 11.12 202.92 12.24Q202.88 13.36 202.80 14.32L202.80 14.32Q202.64 15.60 202.40 16.96Q202.16 18.32 201.84 19.52" style="fill: rgb(253, 197, 52);" transform="translate(-113.444,-19.878)"></path></g><g class="path" style="opacity: 1; transform-origin: 108.3px 17.77px; transform: matrix3d(1, 0, 0, 0, 0, 1, 0, 0, 0, 0, 1, 0, 0, 0, 0, 1); animation: 1s linear -0.0776471s infinite normal forwards running animate-ffrig66in1; transform-box: view-box;"><path d="M224.72 39.92L224.72 39.92Q224.72 39.92 224.32 39.92L224.32 39.92Q224.16 39.92 223.92 39.84L223.92 39.84Q222.80 39.60 221.52 38.84Q220.24 38.08 219.36 36L219.36 36Q219.04 35.20 218.88 33.92Q218.72 32.64 218.72 31.44Q218.72 30.24 218.88 29.36Q219.04 28.48 219.36 28.56L219.36 28.56Q219.44 28.56 219.56 28.92Q219.68 29.28 219.76 29.76Q219.84 30.24 219.92 30.72Q220 31.20 220 31.44L220 31.44Q220.16 32.56 220.40 33.64Q220.64 34.72 221.04 35.60L221.04 35.60Q221.44 36.80 222.52 38.12Q223.60 39.44 224.48 39.60L224.48 39.60Q224.88 39.76 224.72 39.92" style="fill: rgb(100, 201, 222);" transform="translate(-113.444,-19.878)"></path></g><g class="path" style="opacity: 1; transform-origin: 88.91px 18.07px; transform: matrix3d(1, 0, 0, 0, 0, 1, 0, 0, 0, 0, 1, 0, 0, 0, 0, 1); animation: 1s linear -0.0582353s infinite normal forwards running animate-ffrig66in1; transform-box: view-box;"><path d="M203.20 39.76L203.20 39.76Q203.36 40.32 203.20 40.32L203.20 40.32Q202.80 40.32 202.56 39.92L202.56 39.92Q202.16 39.44 201.76 38.52Q201.36 37.60 201.44 35.36L201.44 35.36Q201.44 34.48 201.60 33.24Q201.76 32 201.96 30.92Q202.16 29.84 202.40 29.12Q202.64 28.40 202.96 28.48L202.96 28.48Q203.04 28.48 203.08 28.84Q203.12 29.20 203.16 29.68Q203.20 30.16 203.20 30.60Q203.20 31.04 203.20 31.20L203.20 31.20Q203.20 32.48 203.12 33.48Q203.04 34.48 203.04 35.60L203.04 35.60Q203.04 37.12 203.04 38.16Q203.04 39.20 203.20 39.76" style="fill: rgb(253, 102, 57);" transform="translate(-113.444,-19.878)"></path></g><g class="path" style="opacity: 1; transform-origin: 75.14px 1.38px; transform: matrix3d(1, 0, 0, 0, 0, 1, 0, 0, 0, 0, 1, 0, 0, 0, 0, 1); animation: 1s linear -0.0388235s infinite normal forwards running animate-ffrig66in1; transform-box: view-box;"><path d="M191.36 13.20L191.36 13.20Q190.48 16.24 189 19.20Q187.52 22.16 186.56 24.88L186.56 24.88Q186.48 25.04 186.28 25.48Q186.08 25.92 185.76 25.84L185.76 25.84Q185.60 25.76 185.56 25.32Q185.52 24.88 185.52 24.64L185.52 24.64Q185.52 23.36 185.96 21.24Q186.40 19.12 186.88 17.76L186.88 17.76Q187.04 17.28 187.48 15.32Q187.92 13.36 188.28 11.04Q188.64 8.72 188.76 6.56Q188.88 4.40 188.32 3.44L188.32 3.44Q188 2.88 188.32 2.88L188.32 2.88Q188.56 2.88 188.96 3.28L188.96 3.28Q189.92 4.16 190.52 5.44Q191.12 6.72 191.40 8.12Q191.68 9.52 191.64 10.88Q191.60 12.24 191.36 13.20" style="fill: rgb(25, 91, 121);" transform="translate(-113.444,-19.878)"></path></g><g class="path" style="opacity: 1; transform-origin: 70.45px 12.5px; transform: matrix3d(1, 0, 0, 0, 0, 1, 0, 0, 0, 0, 1, 0, 0, 0, 0, 1); animation: 1s linear -0.0194118s infinite normal forwards running animate-ffrig66in1; transform-box: view-box;"><path d="M186.08 39.84L186.08 39.84Q183.60 38.16 182.28 36.16Q180.96 34.16 180.48 32Q180 29.84 180.12 27.60Q180.24 25.36 180.72 23.20L180.72 23.20Q181.36 20.32 182.36 17.48Q183.36 14.64 184.28 11.96Q185.20 9.28 185.72 6.72Q186.24 4.16 185.84 1.84L185.84 1.84Q185.84 1.52 185.92 1.52L185.92 1.52Q186.08 1.52 186.32 1.92L186.32 1.92Q187.76 4.48 187.68 7.20Q187.60 9.92 186.80 12.76Q186 15.60 184.84 18.52Q183.68 21.44 183.04 24.40L183.04 24.40Q182.64 26.24 182.52 28.28Q182.40 30.32 182.80 32.32Q183.20 34.32 184.12 36.24Q185.04 38.16 186.64 39.68L186.64 39.68Q186.96 39.84 186.80 40L186.80 40Q186.64 40.16 186.44 40.04Q186.24 39.92 186.08 39.84" style="fill: rgb(253, 197, 52);" transform="translate(-113.444,-19.878)"></path></g><g class="path" style="opacity: 1; transform-origin: 73.41px 18.51px; transform: matrix3d(1, 0, 0, 0, 0, 1, 0, 0, 0, 0, 1, 0, 0, 0, 0, 1); animation: 1s linear 0s infinite normal forwards running animate-ffrig66in1; transform-box: view-box;"><path d="M189.12 40.16L189.12 40.16Q188.88 40.32 188.48 39.92L188.48 39.92Q187.60 39.28 186.76 38.56Q185.92 37.84 185.12 36.24L185.12 36.24Q184.80 35.68 184.64 34.80Q184.48 33.92 184.48 33.08Q184.48 32.24 184.60 31.68Q184.72 31.12 184.96 31.12L184.96 31.12Q185.28 31.20 185.48 32Q185.68 32.80 185.84 33.04L185.84 33.04Q186.16 33.92 186.40 34.68Q186.64 35.44 186.96 36.16L186.96 36.16Q187.44 37.28 187.92 38.08Q188.40 38.88 189.04 39.68L189.04 39.68Q189.12 39.76 189.20 39.92Q189.28 40.08 189.12 40.16" style="fill: rgb(100, 201, 222);" transform="translate(-113.444,-19.878)"></path></g></g><text dy="0.35em" fill="#fdc534" font-family="Akronim" font-size="62">Mausam</text>
</g>
</g><style type="text/css">@keyframes animate-ffrig66in1 { 0.00% {transform: translate(0.00px,0.00px) rotate(0.00deg) scale(1.00, 1.00) skew(0deg, 0.00deg) ;opacity: 1.00;}2.00% {animation-timing-function: cubic-bezier(0.20,0.39,0.50,0.97);transform: translate(0.00px,-1.08px) rotate(0.00deg) ;}36.00% {animation-timing-function: cubic-bezier(0.50,0.03,0.80,0.61);transform: translate(0.00px,-10.00px) rotate(0.00deg) ;}72.00% {transform: translate(0.00px,-0.12px) rotate(0.00deg) ;}74.00% {animation-timing-function: cubic-bezier(0.24,0.43,0.48,0.91);transform: translate(0.00px,0.00px) rotate(0.00deg) scale(1.00, 0.95) ;}86.00% {animation-timing-function: cubic-bezier(0.53,0.08,0.77,0.57);transform: translate(0.00px,0.00px) rotate(0.00deg) scale(1.00, 0.80) ;}100.00% {animation-timing-function: cubic-bezier(0.53,0.08,0.77,0.57);transform: translate(0.00px,0.00px) rotate(0.00deg) scale(1.00, 1.00) ;} }</style><!-- [ldio] generated by https://loading.io --></svg>